<svg xmlns="http://www.w3.org/2000/svg" width="122" height="122" viewBox="0 0 122 122">
  <g id="Group_16216" data-name="Group 16216" transform="translate(-1025 -1629)">
    <path id="Ellipse_4" data-name="Ellipse 4" d="M61,0A61,61,0,1,1,0,61,61,61,0,0,1,61,0Z" transform="translate(1025 1629)" fill="#209193"/>
    <g id="church-svgrepo-com" transform="translate(1048.039 1640.704)">
      <path id="Path_1963" data-name="Path 1963" d="M253.381,206.25v22.829h13.866V214.265Z" transform="translate(-191.326 -147.783)" fill="#f4f5fa"/>
      <path id="Path_1964" data-name="Path 1964" d="M0,229.025H13.866V206.178L0,214.211Z" transform="translate(0 -147.729)" fill="#f4f5fa"/>
      <path id="Path_1965" data-name="Path 1965" d="M66.619,119.2v30.515H80.835V136.779a7.347,7.347,0,0,1,7.347-7.347h.164a7.347,7.347,0,0,1,7.347,7.347v12.937h14.216V119.2L88.264,101.247Z" transform="translate(-50.304 -68.496)" fill="#f4f5fa"/>
      <path id="Path_1966" data-name="Path 1966" d="M27.5,47.529l3.673,4.457,27.552-22.7,27.552,22.7,3.673-4.457L60.441,23.212V17.8h5.3V14.372h-5.3V10.535H57.013v3.837h-5.3V17.8h5.3v5.411Z" transform="translate(-20.767)" fill="#f4f5fa"/>
    </g>
  </g>
</svg>
