<svg xmlns="http://www.w3.org/2000/svg" width="122" height="122" viewBox="0 0 122 122">
  <g id="Group_16213" data-name="Group 16213" transform="translate(-460 -1629)">
    <g id="Group_21" data-name="Group 21" transform="translate(309 570)">
      <circle id="Ellipse_4" data-name="Ellipse 4" cx="61" cy="61" r="61" transform="translate(151 1059)" fill="#1f7cff"/>
    </g>
    <path id="law-svgrepo-com" d="M37.937,4.292a2.292,2.292,0,0,0-4.585,0V9.641H27.319a5.349,5.349,0,0,0-3.011.926l-5.181,3.527a.764.764,0,0,1-.431.131H6.159a2.292,2.292,0,0,0,0,4.585h4.82L.688,42.285a2.329,2.329,0,0,0,.642,2.69,10.644,10.644,0,0,0,.944.675,18.575,18.575,0,0,0,2.421,1.323,21.336,21.336,0,0,0,17.581,0A18.575,18.575,0,0,0,24.7,45.65a9.763,9.763,0,0,0,.948-.682,2.292,2.292,0,0,0,.639-2.684L15.988,18.811H18.7a5.355,5.355,0,0,0,3.008-.926l5.184-3.527a.764.764,0,0,1,.428-.131h6.037V58.545H19.638a2.292,2.292,0,1,0,0,4.585H51.652a2.292,2.292,0,1,0,0-4.585H37.937V14.226h6.034a.753.753,0,0,1,.428.131l5.187,3.527a5.355,5.355,0,0,0,3.008.926H55.3L45.007,42.285a2.292,2.292,0,0,0,.7,2.739c.037.028,0,0,.006,0a9.64,9.64,0,0,0,.948.63,18.968,18.968,0,0,0,2.415,1.223,22.788,22.788,0,0,0,17.456,0,19.245,19.245,0,0,0,2.415-1.22,10.7,10.7,0,0,0,.948-.63,2.292,2.292,0,0,0,.7-2.739L60.311,18.811h4.823a2.292,2.292,0,1,0,0-4.585H52.6a.764.764,0,0,1-.428-.131l-5.187-3.527a5.349,5.349,0,0,0-3.008-.926H37.937ZM5.67,42.34a16.706,16.706,0,0,0,15.631,0L13.485,24.52Zm44.35-.073c.251.122.532.254.841.385a18.151,18.151,0,0,0,14.729-.385L57.8,24.517,50.019,42.266Z" transform="translate(485.354 1656.935)" fill="#f4f5fa" fill-rule="evenodd"/>
  </g>
</svg>
