<svg xmlns="http://www.w3.org/2000/svg" width="122" height="122" viewBox="0 0 122 122">
  <g id="Group_16217" data-name="Group 16217" transform="translate(-1033 -1888)">
    <g id="Group_16211" data-name="Group 16211" transform="translate(8 93)">
      <circle id="Ellipse_4" data-name="Ellipse 4" cx="61" cy="61" r="61" transform="translate(1025 1795)" fill="#8b4eff"/>
      <g id="toast-party-svgrepo-com" transform="translate(992.799 1816.389)">
        <g id="Group_16202" data-name="Group 16202" transform="translate(63.4 9.366)">
          <g id="Group_16201" data-name="Group 16201">
            <path id="Path_1969" data-name="Path 1969" d="M118.5,123.054l-4.766.327-1.457-21.259a14.595,14.595,0,0,0,10.688-15.027L121.4,64.233a3.977,3.977,0,0,0-4.235-3.692L96.081,61.987a3.965,3.965,0,0,0-3.022,1.752A3.939,3.939,0,0,0,90.707,62.7L69.645,60.948a3.978,3.978,0,0,0-4.289,3.629L64.344,76.713c0,.007,0,.014,0,.021l-.891,10.679A14.6,14.6,0,0,0,73.917,102.6l-1.772,21.235-4.761-.4a2.849,2.849,0,0,0-.474,5.678l15.2,1.268c.08.007.161.01.24.01a2.849,2.849,0,0,0,.234-5.688l-4.761-.4,1.772-21.238A14.586,14.586,0,0,0,92.431,89.831L93.3,79.454l.66,9.631A14.561,14.561,0,0,0,106.6,102.508l1.458,21.263-4.766.327a2.849,2.849,0,0,0,.192,5.691q.1,0,.2-.007l15.216-1.043a2.849,2.849,0,0,0-.39-5.684Zm-31.75-33.7a8.843,8.843,0,0,1-17.624-1.47l.584-7a22,22,0,0,0,9.193.774,16.3,16.3,0,0,1,7.572.826l.823.3ZM87.79,76.918a22.031,22.031,0,0,0-9.614-.9,16.274,16.274,0,0,1-7.953-.968l-.023-.009.69-8.268,17.624,1.47Zm10.968-1.087-.567-8.277,17.644-1.21.6,8.688a22.029,22.029,0,0,0-9.64.559,16.276,16.276,0,0,1-8.008.245Zm3.9,18.914a8.777,8.777,0,0,1-3.021-6.05l-.48-7a21.953,21.953,0,0,0,9.2-.625,16.3,16.3,0,0,1,7.61-.328l.858.169.451,6.578a8.828,8.828,0,0,1-14.623,7.26Z" transform="translate(-63.4 -60.532)" fill="#f4f5fa"/>
          </g>
        </g>
        <g id="Group_16204" data-name="Group 16204" transform="translate(86.279 2.872)">
          <g id="Group_16203" data-name="Group 16203" transform="translate(0)">
            <path id="Path_1970" data-name="Path 1970" d="M214.9,18.574a3.361,3.361,0,0,0-.558,6.7c.094.008.188.012.281.012a3.361,3.361,0,0,0,.277-6.71Z" transform="translate(-211.262 -18.562)" fill="#f4f5fa"/>
          </g>
        </g>
        <g id="Group_16206" data-name="Group 16206" transform="translate(77.889 0.647)">
          <g id="Group_16205" data-name="Group 16205">
            <path id="Path_1971" data-name="Path 1971" d="M160.68,4.2a3.361,3.361,0,1,0-.559,6.7c.094.008.188.012.281.012a3.361,3.361,0,0,0,.278-6.71Z" transform="translate(-157.039 -4.187)" fill="#f4f5fa"/>
          </g>
        </g>
        <g id="Group_16208" data-name="Group 16208" transform="translate(111.949 0.93)">
          <g id="Group_16207" data-name="Group 16207" transform="translate(0)">
            <path id="Path_1972" data-name="Path 1972" d="M383.873,9.147h0a3.361,3.361,0,1,0-3.359,3.591c.078,0,.156,0,.235-.008A3.365,3.365,0,0,0,383.873,9.147Z" transform="translate(-377.159 -6.015)" fill="#f4f5fa"/>
          </g>
        </g>
        <g id="Group_16210" data-name="Group 16210" transform="translate(103.319 -0.001)">
          <g id="Group_16209" data-name="Group 16209">
            <path id="Path_1973" data-name="Path 1973" d="M328.1,3.13a3.361,3.361,0,1,0-3.359,3.591c.078,0,.156,0,.235-.008A3.361,3.361,0,0,0,328.1,3.13Z" transform="translate(-321.386 0.001)" fill="#f4f5fa"/>
          </g>
        </g>
      </g>
    </g>
  </g>
</svg>
