<svg xmlns="http://www.w3.org/2000/svg" width="112" height="105" viewBox="0 0 112 105">
  <g id="Group_16127" data-name="Group 16127" transform="translate(-142 -200.111)">
    <path id="Polygon_1" data-name="Polygon 1" d="M40.279,11.259a27,27,0,0,1,31.442,0L95.865,28.551a27,27,0,0,1,9.922,30.4l-9.064,27.5A27,27,0,0,1,71.081,105H40.919A27,27,0,0,1,15.276,86.452l-9.064-27.5a27,27,0,0,1,9.922-30.4Z" transform="translate(142 200.111)" fill="#fff"/>
    <g id="XMLID_241_" transform="translate(163.586 224.08)">
      <g id="Group_182" data-name="Group 182" transform="translate(0)">
        <g id="Group_181" data-name="Group 181" transform="translate(0)">
          <path id="Path_106" data-name="Path 106" d="M140.07,49.648h1.372a8.17,8.17,0,0,0,8.233-8.086,1.36,1.36,0,0,0-1.372-1.348h-1.34a4.146,4.146,0,0,1-3.994-2.969,8.935,8.935,0,0,0,4.356-2.562,8.642,8.642,0,0,0,0-11.848,8.95,8.95,0,0,0-5.442-2.765c-.138-.046-1.813-.071-1.813-.071a14.826,14.826,0,1,0,0,29.648Zm0-26.953s1.19.021,1.249.026a6.054,6.054,0,0,1,0,12.076c-.059.005-.661.025-.711.025a6.162,6.162,0,0,1-4.99-2.694h1.022a8.96,8.96,0,0,0,6.88-3.185,1.331,1.331,0,0,0-.184-1.9,1.389,1.389,0,0,0-1.932.181,6.205,6.205,0,0,1-4.764,2.206H133.5a1.381,1.381,0,0,0-1.094.535,1.329,1.329,0,0,0-.226,1.18A8.833,8.833,0,0,0,140.21,37.5a6.872,6.872,0,0,0,6.548,5.4,5.481,5.481,0,0,1-5.316,4.046H140.07a12.131,12.131,0,1,1,0-24.257Z" transform="translate(-111.259 -17.305)" fill="#ff5f00"/>
          <path id="Path_107" data-name="Path 107" d="M272.823,150a1.381,1.381,0,0,0-1.11.555l-7.749,10.464a9.491,9.491,0,0,1-7.607,3.8,1.348,1.348,0,1,0,0,2.7,12.259,12.259,0,0,0,9.827-4.915l7.3-9.857a4.072,4.072,0,0,1,3.456,3.991v35.038h-3.016l-5.25-23.2a1.372,1.372,0,0,0-1.637-1.023A1.347,1.347,0,0,0,266,169.16l5.489,24.257a1.367,1.367,0,0,0,1.339,1.055h5.489a1.36,1.36,0,0,0,1.372-1.348V156.739A6.808,6.808,0,0,0,272.823,150Z" transform="translate(-223.43 -129.786)" fill="#ff5f00"/>
          <path id="Path_108" data-name="Path 108" d="M62.021,243.252a1.371,1.371,0,0,0-1.6-1.076,1.349,1.349,0,0,0-1.1,1.573l3.507,18.37a1.313,1.313,0,0,1-.293,1.109,1.362,1.362,0,0,1-1.056.487H31.826a4.084,4.084,0,0,1-4.088-4.043,1.406,1.406,0,0,0,.184-.018c9.288-1.5,18.5-6.371,25.942-13.7a1.331,1.331,0,0,0,0-1.906,1.39,1.39,0,0,0-1.941,0,46.5,46.5,0,0,1-22.975,12.679l15.7-21.449a1.332,1.332,0,0,0-.313-1.881,1.389,1.389,0,0,0-1.915.308L26.3,255.724a6.639,6.639,0,0,0-.534,7.038,6.8,6.8,0,0,0,6.061,3.649H61.482a4.134,4.134,0,0,0,3.168-1.461,3.979,3.979,0,0,0,.878-3.327Z" transform="translate(-25 -201.724)" fill="#ff5f00"/>
          <path id="Path_109" data-name="Path 109" d="M333.909,0h-3.43a5.446,5.446,0,0,0-5.489,5.391V8.76a8.921,8.921,0,0,0,17.838,0A8.85,8.85,0,0,0,333.909,0Zm-3.43,2.7h3.43a6.179,6.179,0,0,1,5.818,4.032q-.19.011-.381.011h-5.94a6.819,6.819,0,0,1-5.367-2.582A2.754,2.754,0,0,1,330.479,2.7Zm3.43,12.129a6.127,6.127,0,0,1-6.175-6.064V7.6a9.626,9.626,0,0,0,5.672,1.834h5.94q.351,0,.7-.025A6.144,6.144,0,0,1,333.909,14.824Z" transform="translate(-283.829 0)" fill="#ff5f00"/>
        </g>
      </g>
    </g>
  </g>
</svg>
