<svg xmlns="http://www.w3.org/2000/svg" width="122" height="122" viewBox="0 0 122 122">
  <g id="Group_16212" data-name="Group 16212" transform="translate(-455 -1884)">
    <circle id="Ellipse_4" data-name="Ellipse 4" cx="61" cy="61" r="61" transform="translate(455 1884)" fill="#ff1fb3"/>
    <g id="wedding-reception-svgrepo-com" transform="translate(480.357 1910.77)">
      <g id="Group_16200" data-name="Group 16200" transform="translate(0 3.23)">
        <path id="Path_1967" data-name="Path 1967" d="M80.485,78.217a1.455,1.455,0,0,0,1.787-1.024c2.7-9.961,11.122-11.659,11.48-11.726a1.456,1.456,0,0,0-.524-2.865c-.43.078-10.567,2.044-13.767,13.828A1.457,1.457,0,0,0,80.485,78.217Z" transform="translate(-63.99 -51.054)" fill="#f4f5fa"/>
        <path id="Path_1968" data-name="Path 1968" d="M68.438,32.882H62.658a27.109,27.109,0,0,0-21-24.367,6.069,6.069,0,0,0-12.037,0,27.109,27.109,0,0,0-21,24.367H2.85A2.853,2.853,0,0,0,0,35.731V38.8a2.853,2.853,0,0,0,2.85,2.85H19.084c.865,1.2,4.456,6.562,5.671,8.05,1.973,2.417,7.45,3.6,10.127,4.044L32.859,71.643a1.456,1.456,0,0,0,1.283,1.611,1.438,1.438,0,0,0,.165.01,1.457,1.457,0,0,0,1.445-1.293l2.182-19.294a1.456,1.456,0,0,0-1.27-1.609c-3.247-.4-8.389-1.656-9.654-3.205-1.128-1.382-3.958-5.6-4.372-6.208H25.9c.8.723,2.637,2.334,4.781,3.942,1.526,1.145,7.924,1,11.276.039a1.452,1.452,0,0,0,.805-.586l2.286-3.395H47.9L44.581,53.16a1.445,1.445,0,0,0-.057.432l.355,18.244a1.456,1.456,0,0,0,1.456,1.428h.029a1.457,1.457,0,0,0,1.428-1.484l-.35-18.023,3.492-12.1h17.5a2.853,2.853,0,0,0,2.85-2.85V35.731A2.852,2.852,0,0,0,68.438,32.882ZM35.644,10.757A24.032,24.032,0,0,1,59.736,32.812H11.552A24.032,24.032,0,0,1,35.644,10.757Zm0-4.615A3.16,3.16,0,0,1,38.517,8a27.291,27.291,0,0,0-5.746,0A3.161,3.161,0,0,1,35.644,6.142Zm5.014,36.824a22.382,22.382,0,0,1-8.295.248c-.7-.53-1.375-1.062-1.984-1.56H41.541Zm27.717-4.225H2.913V35.794H68.375Z" transform="translate(0 -3.23)" fill="#f4f5fa"/>
      </g>
    </g>
  </g>
</svg>
